<?xml version="1.0" encoding="UTF-8"?><svg id="Ebene_1" xmlns="http://www.w3.org/2000/svg" viewBox="0 0 160 36.66"><defs><style>.cls-1{fill:#002427;}</style></defs><path class="cls-1" d="M25.76,16.08v-5.53h-6.44v3.66c0,1.03.84,1.87,1.87,1.87h4.57Z"/><path class="cls-1" d="M12.87,16.08v-5.53h-6.44v11.77c0,5.26,4.13,9.71,9.39,9.86s9.93-4.23,9.93-9.66h-6.44c-3.56,0-6.44-2.88-6.44-6.44Z"/><path class="cls-1" d="M49.72,11.34c-1.04-.61-2.19-.91-3.47-.91h-9.15v21.56h4.62v-7.55h4.53c1.27,0,2.43-.31,3.47-.94,1.04-.63,1.86-1.47,2.46-2.54.61-1.07.91-2.27.91-3.6s-.3-2.49-.91-3.54c-.61-1.05-1.43-1.87-2.46-2.48ZM48,18.88c-.24.43-.55.78-.94,1.03-.39.26-.83.38-1.32.38h-4.07v-5.7h4.07c.49,0,.93.12,1.32.35.39.24.7.56.94.99.24.42.35.91.35,1.46s-.12,1.05-.35,1.48Z"/><path class="cls-1" d="M69.85,23.43c0,.86-.2,1.64-.6,2.33-.4.69-.94,1.24-1.63,1.65-.69.41-1.45.62-2.29.62s-1.57-.2-2.23-.62c-.67-.41-1.2-.96-1.59-1.65-.39-.69-.59-1.46-.59-2.33v-13.03h-4.65v13.31c0,1.62.39,3.08,1.17,4.36.78,1.28,1.85,2.29,3.22,3.02,1.37.73,2.92,1.09,4.67,1.09s3.27-.36,4.64-1.09c1.37-.73,2.44-1.73,3.22-3.02.78-1.28,1.17-2.74,1.17-4.36v-13.31h-4.5v13.03Z"/><path class="cls-1" d="M61.75,8.71c.8,0,1.42-.24,1.85-.71.43-.47.65-1.04.65-1.69,0-.76-.21-1.36-.63-1.79-.42-.43-1.04-.65-1.86-.65s-1.44.24-1.86.72c-.42.48-.63,1.05-.63,1.71,0,.74.21,1.32.63,1.76.42.43,1.04.65,1.86.65Z"/><path class="cls-1" d="M68.87,8.71c.8,0,1.42-.24,1.85-.71.43-.47.65-1.04.65-1.69,0-.76-.21-1.36-.63-1.79-.42-.43-1.04-.65-1.86-.65s-1.42.24-1.85.72c-.43.48-.65,1.05-.65,1.71,0,.74.21,1.32.63,1.76.42.43,1.04.65,1.86.65Z"/><polygon class="cls-1" points="77.21 14.59 83.5 14.59 83.5 32 88.12 32 88.12 14.59 94.58 14.59 94.58 10.44 77.21 10.44 77.21 14.59"/><polygon class="cls-1" points="96.77 14.59 103.05 14.59 103.05 32 107.68 32 107.68 14.59 114.14 14.59 114.14 10.44 96.77 10.44 96.77 14.59"/><polygon class="cls-1" points="121.69 22.97 130.28 22.97 130.28 19.03 121.69 19.03 121.69 14.5 131.76 14.5 131.76 10.44 117.19 10.44 117.19 32 131.98 32 131.98 27.93 121.69 27.93 121.69 22.97"/><path class="cls-1" d="M153.57,32.03l-4.89-8.44c.16-.08.32-.16.48-.25,1.09-.62,1.95-1.45,2.57-2.51.63-1.06.94-2.23.94-3.53s-.31-2.48-.94-3.51c-.63-1.03-1.48-1.84-2.57-2.45-1.09-.61-2.3-.91-3.63-.91h-9.55v21.56h4.47v-7.73h3.41l4.35,7.73,5.36.03ZM140.45,14.44h4.28c.68,0,1.27.13,1.79.39.51.26.9.61,1.17,1.06.27.45.4.99.4,1.6,0,.58-.11,1.09-.34,1.56-.23.46-.55.82-.97,1.08-.42.26-.91.38-1.46.38h-4.87v-6.07Z"/></svg>